<?xml version="1.0" standalone="no"?>
<!DOCTYPE svg PUBLIC "-//W3C//DTD SVG 20010904//EN"
 "http://www.w3.org/TR/2001/REC-SVG-20010904/DTD/svg10.dtd">
  <svg version="1.0" xmlns="http://www.w3.org/2000/svg"
  viewBox="0 0 512.000000 512.000000"
 preserveAspectRatio="xMidYMid meet">

<g transform="translate(0.000000,512.000000) scale(0.100000,-0.100000)"
fill="rgb(239 68 68)" stroke="none">
<path d="M1745 3350 c-127 -26 -247 -102 -319 -204 -77 -107 -98 -179 -97
-330 1 -115 20 -197 66 -284 18 -34 30 -64 26 -66 -3 -2 -24 -9 -46 -16 -35
-11 -78 -32 -175 -84 -14 -8 -47 -19 -74 -25 -166 -39 -315 -183 -369 -356
-25 -82 -29 -235 -8 -325 11 -43 55 -150 88 -212 2 -3 -20 -14 -49 -23 -191
-62 -291 -170 -369 -397 -21 -61 -22 -71 -11 -115 17 -61 50 -105 99 -129 36
-18 72 -19 604 -22 l567 -2 -30 -77 c-54 -140 -25 -243 83 -297 l53 -26 776 0
776 0 53 26 c108 54 137 157 83 297 l-30 77 567 2 c532 3 568 4 604 22 49 24
82 68 99 129 11 44 10 54 -11 115 -78 227 -178 335 -369 397 -29 9 -51 20 -49
23 33 62 77 169 88 212 21 90 17 243 -8 325 -56 179 -199 314 -384 361 -34 9
-79 28 -99 43 -21 15 -70 38 -109 51 -39 14 -71 27 -71 31 0 4 11 26 24 50 72
130 92 333 48 475 -54 177 -202 312 -381 349 -221 47 -476 -138 -532 -385 -15
-66 -11 -233 7 -304 8 -33 30 -89 49 -124 18 -34 30 -64 26 -66 -3 -2 -24 -9
-46 -16 -118 -38 -252 -140 -284 -218 -11 -27 -19 -32 -46 -32 -28 0 -37 7
-63 48 -59 91 -139 152 -252 192 -36 13 -67 25 -69 27 -2 1 7 24 21 50 74 136
95 336 50 479 -54 176 -202 312 -379 349 -75 16 -72 16 -128 5z m146 -260 c56
-29 117 -105 135 -169 36 -123 0 -263 -96 -367 -53 -59 -67 -99 -55 -161 11
-62 55 -95 185 -138 139 -46 176 -64 215 -105 25 -26 27 -33 15 -40 -8 -4 -32
-22 -54 -39 l-39 -31 -266 0 -267 0 -22 46 c-13 25 -46 70 -74 100 -28 30 -49
56 -47 58 2 2 34 13 70 25 94 31 139 83 139 161 0 51 -10 71 -71 138 -67 73
-92 143 -93 257 0 79 3 96 26 141 48 92 152 159 228 148 19 -3 51 -14 71 -24z
m1520 0 c56 -29 117 -105 135 -169 36 -123 0 -263 -96 -367 -53 -59 -67 -99
-55 -161 10 -53 58 -96 138 -122 37 -13 67 -25 67 -28 0 -3 -22 -30 -50 -59
-27 -28 -59 -73 -72 -98 l-22 -46 -267 0 -266 0 -39 31 c-22 17 -46 35 -54 40
-12 7 -8 16 26 47 33 32 64 47 180 86 174 58 214 92 214 186 0 51 -10 71 -71
138 -67 73 -92 143 -93 257 0 79 3 96 26 141 48 92 152 159 228 148 19 -3 51
-14 71 -24z m-2121 -991 c130 -59 188 -166 177 -326 -7 -91 -37 -158 -105
-236 -60 -67 -76 -114 -61 -171 18 -67 60 -96 205 -143 71 -24 143 -52 160
-62 38 -23 78 -73 99 -124 l15 -37 -559 0 -560 0 15 38 c40 96 89 131 268 188
137 45 177 74 196 142 15 58 0 103 -54 162 -57 62 -83 106 -101 175 -44 170
12 317 146 384 73 36 98 38 159 10z m2686 -3 c140 -65 203 -217 160 -385 -19
-74 -44 -118 -102 -181 -54 -59 -69 -104 -54 -162 19 -68 59 -97 196 -142 179
-57 228 -92 268 -188 l15 -38 -560 0 -559 0 15 37 c21 51 61 101 99 124 17 10
87 38 156 60 166 56 192 75 211 157 11 51 -7 98 -63 159 -77 85 -102 148 -103
258 0 107 14 159 58 217 36 47 141 108 185 108 15 0 50 -11 78 -24z m-1294
-178 c142 -76 202 -204 187 -403 -8 -102 -48 -191 -124 -273 -59 -64 -75 -95
-75 -148 0 -43 31 -106 62 -126 13 -8 92 -38 176 -66 214 -73 255 -104 316
-244 l26 -58 -690 0 -689 0 21 52 c31 77 73 133 122 167 24 17 111 53 192 81
82 27 159 56 172 62 33 17 72 88 72 131 0 54 -15 84 -75 149 -77 83 -116 169
-124 277 -4 47 -3 110 1 139 21 133 111 238 246 289 51 18 113 9 184 -29z
m-648 -140 c-29 -91 -33 -260 -8 -371 15 -69 75 -208 109 -253 16 -21 15 -22
-58 -47 l-74 -25 -22 53 c-55 132 -170 238 -310 285 -39 14 -70 27 -68 30 48
84 81 173 95 255 l15 95 164 0 164 0 -7 -22z m1388 -73 c14 -85 36 -143 96
-256 1 -4 -28 -17 -65 -29 -138 -45 -248 -142 -308 -273 -15 -31 -32 -57 -39
-57 -7 0 -40 9 -75 21 -61 21 -62 22 -46 43 34 45 94 184 109 253 25 111 21
280 -8 371 l-7 22 164 0 164 0 15 -95z"/>
</g>
</svg>
