<?xml version="1.0" standalone="no"?>
<!DOCTYPE svg PUBLIC "-//W3C//DTD SVG 20010904//EN"
 "http://www.w3.org/TR/2001/REC-SVG-20010904/DTD/svg10.dtd">
<svg version="1.0" xmlns="http://www.w3.org/2000/svg"
 width="65" height="65" viewBox="0 0 512.000000 512.000000"
 preserveAspectRatio="xMidYMid meet">

<g transform="translate(0.000000,512.000000) scale(0.100000,-0.100000)"
fill="rgb(239 68 68)" stroke="none">
<path d="M4466 4589 c-25 -19 -26 -25 -26 -113 0 -84 2 -95 23 -114 29 -27 67
-28 98 -3 22 18 24 26 24 116 0 90 -2 98 -24 116 -30 25 -62 24 -95 -2z"/>
<path d="M1400 4426 c-161 -46 -291 -154 -359 -300 -16 -34 -61 -177 -101
-318 l-72 -258 -36 31 c-64 57 -90 63 -288 67 -204 4 -246 -3 -301 -51 -51
-45 -63 -81 -63 -190 0 -81 4 -100 27 -146 17 -35 41 -64 69 -84 l43 -30 -43
-47 c-52 -55 -90 -127 -111 -206 -10 -40 -20 -216 -35 -612 -12 -307 -23 -570
-26 -587 -3 -20 -14 -36 -33 -46 -15 -9 -38 -36 -49 -61 -20 -41 -22 -60 -22
-249 0 -228 9 -265 69 -308 l31 -22 0 -157 c0 -180 8 -219 56 -272 67 -74 73
-75 395 -75 l286 0 49 30 c29 19 60 49 78 78 29 47 30 52 34 211 l5 164 41 5
c69 10 101 82 56 127 -19 19 -33 20 -473 20 -248 0 -458 4 -465 8 -9 7 -12 52
-10 193 l3 184 848 3 847 2 0 -195 0 -195 -243 0 c-220 0 -245 -2 -260 -17
-29 -33 -31 -68 -4 -99 l25 -29 1376 -3 1376 -2 0 -133 c1 -72 5 -152 9 -176
12 -58 57 -121 111 -151 l45 -25 285 0 c320 0 327 1 394 75 48 53 56 92 56
272 l0 157 31 22 c60 43 69 80 69 308 0 189 -2 208 -22 249 -11 25 -34 52 -49
61 -19 10 -30 26 -33 46 -3 17 -14 281 -26 587 -15 394 -25 573 -35 613 -21
78 -59 150 -111 205 l-43 47 43 30 c28 20 52 49 69 84 23 46 27 65 27 146 0
109 -12 145 -63 190 -55 48 -97 55 -301 51 -198 -4 -224 -10 -288 -67 l-36
-31 -72 258 c-40 141 -85 285 -101 319 -60 126 -179 235 -314 285 l-60 23
-1130 2 c-890 1 -1140 -1 -1175 -11z m2350 -173 c76 -37 152 -109 186 -175 18
-36 189 -610 230 -773 l6 -25 -90 0 -89 0 -102 358 c-63 220 -111 371 -126
393 -14 22 -44 47 -76 63 -51 25 -60 26 -221 26 -166 0 -169 0 -193 -25 -14
-13 -25 -36 -25 -50 0 -14 11 -37 25 -50 24 -24 28 -25 183 -25 142 0 161 -2
176 -19 14 -16 196 -625 196 -658 0 -10 -36 -13 -146 -13 l-146 0 -38 38 c-41
43 -19 36 -490 161 l-255 68 2 68 c1 37 4 83 8 101 5 32 9 34 45 34 79 0 121
79 70 130 -19 19 -33 20 -320 20 -287 0 -301 -1 -320 -20 -51 -51 -9 -130 70
-130 36 0 40 -2 45 -34 4 -18 7 -64 8 -101 l2 -68 -347 -93 c-190 -51 -358
-100 -372 -109 -13 -9 -32 -27 -41 -41 -15 -24 -18 -24 -165 -24 -113 0 -150
3 -150 13 0 33 182 642 196 658 16 18 48 19 766 19 l749 0 24 25 c14 13 25 36
25 50 0 14 -11 37 -25 50 l-24 25 -759 0 -758 0 -53 -26 c-32 -16 -62 -41 -76
-63 -15 -22 -63 -173 -126 -393 l-102 -358 -89 0 -90 0 6 25 c41 162 212 737
230 774 44 85 142 166 239 197 34 10 254 12 1152 11 l1110 -2 65 -32z m-1136
-535 c-3 -18 -8 -58 -12 -88 -7 -55 -7 -55 -42 -55 -35 0 -35 0 -42 55 -4 30
-9 70 -12 88 l-5 32 59 0 59 0 -5 -32z m-1904 -236 c46 -23 60 -53 60 -134 l0
-68 -194 0 -193 0 -27 26 c-23 24 -26 34 -26 100 0 59 3 75 18 83 9 6 85 11
172 11 128 0 161 -3 190 -18z m4061 8 c16 -9 19 -22 19 -83 0 -67 -2 -76 -28
-100 l-28 -27 -192 0 -192 0 0 68 c0 134 30 152 248 152 87 0 162 -5 173 -10z
m-1761 -166 c201 -53 371 -101 378 -107 9 -7 12 -139 12 -598 0 -576 0 -589
-20 -609 -20 -20 -33 -20 -820 -20 -787 0 -800 0 -820 20 -20 20 -20 33 -20
609 0 461 3 592 13 598 6 4 174 52 372 105 479 129 423 129 905 2z m-1440
-746 c0 -359 4 -566 11 -591 16 -58 72 -114 132 -132 76 -23 1618 -23 1694 0
60 18 116 74 132 132 7 25 11 232 11 591 l0 553 493 -3 c484 -3 493 -4 548
-26 64 -26 139 -87 174 -142 49 -77 54 -118 75 -637 11 -271 20 -527 20 -568
l0 -75 -2300 0 -2300 0 0 75 c0 41 9 299 20 572 15 376 24 510 36 547 41 131
153 226 288 246 28 4 257 8 509 9 l457 1 0 -552z m1548 -1240 l-3 -193 -555 0
-555 0 -3 193 -2 192 560 0 560 0 -2 -192z m1850 3 c2 -141 -1 -186 -10 -193
-7 -4 -390 -8 -850 -8 l-838 0 0 195 0 195 848 -2 847 -3 3 -184z m-4118 -480
c0 -70 -5 -142 -11 -159 -17 -49 -51 -54 -317 -50 -293 4 -272 -11 -272 194
l0 144 300 0 300 0 0 -129z m4020 -15 c0 -205 21 -190 -272 -194 -266 -4 -300
1 -317 50 -6 17 -11 89 -11 159 l0 129 300 0 300 0 0 -144z"/>
<path d="M2210 3226 c-146 -39 -279 -77 -297 -85 -21 -9 -39 -27 -53 -55 -19
-40 -20 -60 -20 -452 0 -451 0 -452 63 -498 28 -21 37 -21 657 -21 620 0 629
0 657 21 63 46 63 47 63 499 0 371 -2 413 -18 444 -9 19 -28 43 -42 53 -14 10
-151 52 -305 93 -366 98 -349 98 -705 1z m400 -521 l0 -445 -50 0 -50 0 0 445
0 445 50 0 50 0 0 -445z m-252 -26 l-3 -414 -53 -3 -52 -3 2 412 3 413 45 12
c25 6 48 8 53 4 4 -3 6 -193 5 -421z m512 255 c3 -90 10 -157 17 -170 23 -39
67 -45 107 -13 26 20 26 22 26 155 l0 134 28 -6 c15 -4 38 -10 52 -14 l25 -6
0 -375 0 -374 -50 0 -50 0 -3 110 c-2 96 -5 112 -24 132 -26 28 -68 30 -99 4
-22 -18 -24 -27 -27 -136 l-4 -116 -51 3 -52 3 -3 410 c-1 225 0 415 2 422 4
8 16 8 53 -1 l48 -12 5 -150z m-772 -281 l-3 -388 -50 0 -50 0 0 375 0 374 45
12 c25 7 48 12 53 13 4 1 6 -173 5 -386z"/>
<path d="M522 2949 c-25 -13 -55 -39 -70 -62 -27 -40 -27 -44 -30 -233 -2
-115 1 -208 8 -232 13 -50 74 -107 129 -122 27 -7 166 -10 408 -8 421 3 421 3
475 87 l29 46 -3 145 c-3 143 -3 146 -37 208 -41 75 -94 125 -170 161 l-56 26
-320 3 c-312 3 -321 2 -363 -19z m693 -155 c22 -11 54 -40 70 -63 28 -40 30
-49 33 -152 3 -76 0 -114 -8 -124 -11 -13 -68 -15 -364 -15 -260 0 -355 3
-364 12 -17 17 -17 339 0 356 10 10 82 12 303 10 272 -3 293 -4 330 -24z"/>
<path d="M715 2700 c-78 -31 -57 -140 26 -140 39 0 69 32 69 73 0 51 -50 86
-95 67z"/>
<path d="M914 2699 c-22 -11 -44 -48 -44 -73 0 -7 9 -25 21 -40 41 -52 129
-22 129 45 0 53 -59 91 -106 68z"/>
<path d="M1123 2700 c-72 -29 -45 -140 34 -140 32 0 73 37 73 66 0 26 -23 62
-47 73 -28 13 -30 13 -60 1z"/>
<path d="M3917 2959 c-93 -22 -178 -89 -228 -181 -34 -62 -34 -64 -37 -208
l-3 -145 29 -46 c54 -85 51 -84 497 -84 439 0 424 -2 489 78 l31 39 0 217 0
217 -27 41 c-16 24 -44 49 -70 62 -42 20 -58 21 -344 20 -164 -1 -316 -5 -337
-10z m621 -151 c17 -17 17 -339 0 -356 -17 -17 -709 -17 -726 0 -8 8 -12 48
-12 112 0 81 4 108 21 143 22 46 65 84 114 101 45 16 587 16 603 0z"/>
<path d="M3935 2698 c-48 -28 -57 -70 -24 -112 40 -51 129 -20 129 46 0 52
-62 91 -105 66z"/>
<path d="M4143 2700 c-26 -11 -43 -40 -43 -74 0 -63 89 -90 129 -40 12 15 21
33 21 40 0 26 -23 62 -47 73 -28 13 -30 13 -60 1z"/>
<path d="M4360 2703 c-51 -19 -68 -85 -30 -123 43 -43 123 -12 123 49 0 48
-51 89 -93 74z"/>
<path d="M1123 2199 c-138 -68 -175 -252 -75 -369 116 -137 328 -108 403 55
52 112 -2 260 -114 314 -59 29 -157 29 -214 0z m172 -154 c54 -53 11 -155 -65
-155 -44 0 -90 47 -90 93 0 78 99 118 155 62z"/>
<path d="M3782 2199 c-146 -74 -178 -273 -62 -386 52 -50 96 -68 170 -68 238
2 327 302 131 440 -37 26 -53 30 -119 33 -63 2 -85 -1 -120 -19z m153 -135
c21 -8 45 -56 45 -89 0 -38 -50 -85 -90 -85 -45 0 -90 47 -90 95 0 64 68 104
135 79z"/>
<path d="M2130 1390 c-25 -25 -26 -71 -1 -101 18 -22 26 -24 119 -24 116 0
142 13 142 72 0 60 -25 73 -140 73 -87 0 -103 -3 -120 -20z"/>
<path d="M2501 1384 c-12 -15 -21 -36 -21 -48 0 -27 33 -64 63 -71 13 -4 114
-5 226 -3 199 3 203 3 222 27 25 30 24 76 -1 101 -19 19 -33 20 -244 20 l-225
0 -20 -26z"/>
<path d="M3461 1384 c-27 -35 -26 -57 3 -91 l24 -28 624 -3 c432 -2 631 1 649
8 25 11 49 47 49 74 0 7 -9 25 -21 40 l-20 26 -644 0 -644 0 -20 -26z"/>
<path d="M524 4378 c-30 -14 -44 -50 -44 -109 0 -103 59 -149 124 -98 24 19
26 26 26 99 0 73 -2 80 -26 99 -29 23 -48 25 -80 9z"/>
<path d="M4206 4329 c-33 -26 -36 -79 -6 -109 17 -17 33 -20 109 -20 105 0
117 4 136 40 19 36 4 83 -31 99 -14 6 -60 11 -103 11 -64 0 -83 -4 -105 -21z"/>
<path d="M4595 4325 c-32 -31 -33 -74 -2 -103 20 -19 35 -22 116 -22 84 0 94
2 116 25 14 13 25 36 25 50 0 14 -11 37 -25 50 -22 23 -32 25 -115 25 -83 0
-93 -2 -115 -25z"/>
<path d="M4465 4195 c-23 -22 -25 -32 -25 -120 0 -82 3 -98 20 -115 28 -28 75
-26 105 5 22 22 25 32 25 104 0 90 -11 124 -47 140 -36 16 -51 14 -78 -14z"/>
<path d="M294 4148 c-22 -10 -44 -47 -44 -72 0 -7 9 -25 21 -40 19 -24 26 -26
99 -26 86 0 114 14 126 62 5 22 0 33 -24 58 -28 27 -36 30 -94 29 -35 0 -73
-5 -84 -11z"/>
<path d="M663 4150 c-46 -19 -57 -83 -20 -118 20 -19 35 -22 100 -22 64 0 80
3 97 20 27 27 26 81 -1 106 -23 21 -138 31 -176 14z"/>
<path d="M509 4001 c-20 -16 -24 -30 -27 -92 -3 -64 -1 -78 18 -101 27 -35 80
-38 110 -8 17 17 20 33 20 98 0 69 -3 81 -23 100 -29 27 -67 28 -98 3z"/>
<path d="M331 1384 c-12 -15 -21 -33 -21 -40 0 -27 24 -63 49 -74 18 -7 217
-10 649 -8 l624 3 24 28 c29 34 30 56 3 91 l-20 26 -644 0 -644 0 -20 -26z"/>
</g>
</svg>
