<?xml version="1.0" standalone="no"?>
<!DOCTYPE svg PUBLIC "-//W3C//DTD SVG 20010904//EN"
 "http://www.w3.org/TR/2001/REC-SVG-20010904/DTD/svg10.dtd">
<svg version="1.0" xmlns="http://www.w3.org/2000/svg"
 width="32.000000pt" height="32.000000pt" viewBox="0 0 32.000000 32.000000"
 preserveAspectRatio="xMidYMid meet">

<g transform="translate(0.000000,32.000000) scale(0.100000,-0.100000)"
fill="rgb(239 68 68)" stroke="none">
<path d="M202 264 c-25 -20 -39 -24 -62 -19 -26 6 -37 0 -85 -42 -58 -51 -64
-63 -40 -83 9 -7 13 -20 10 -30 -3 -10 3 -25 15 -35 17 -16 25 -17 40 -7 27
16 35 15 20 -3 -11 -13 2 -15 104 -15 l116 0 -1 53 c-1 28 -3 44 -6 35 -2 -10
-11 -18 -18 -18 -8 0 -17 -5 -21 -11 -4 -8 0 -9 15 -4 18 5 21 2 21 -19 l0
-26 -97 0 -98 0 95 90 c87 81 96 87 102 67 4 -17 6 -13 7 15 1 29 -2 36 -14
32 -8 -4 -15 -10 -15 -15 0 -5 -5 -9 -10 -9 -6 0 -5 8 2 19 9 15 9 23 -1 35
-19 23 -41 20 -79 -10z m73 -13 c-6 -5 -21 -11 -35 -13 -18 -2 -26 -10 -28
-28 -5 -32 -62 -92 -81 -85 -8 3 -25 -4 -38 -17 -16 -15 -26 -19 -34 -11 -7 7
15 34 71 86 71 67 87 77 118 77 22 0 32 -4 27 -9z m-141 -17 c23 -9 20 -19
-10 -39 -21 -13 -28 -14 -41 -4 -13 12 -13 15 7 31 25 21 23 20 44 12z m126
-24 c0 -11 -6 -20 -14 -20 -18 0 -29 16 -21 30 11 18 35 11 35 -10z m-181 -33
c8 -11 5 -19 -14 -37 -20 -19 -27 -21 -40 -10 -14 12 -13 15 6 37 26 27 32 28
48 10z m135 -28 c-10 -11 -28 -26 -39 -31 -12 -7 -7 3 14 26 36 37 59 42 25 5z
m-71 -45 c9 -10 -4 -34 -18 -34 -17 0 -28 17 -20 30 7 11 28 13 38 4z m-73
-46 c0 -6 -7 -5 -15 2 -8 7 -15 17 -15 22 0 6 7 5 15 -2 8 -7 15 -17 15 -22z"/>
<path d="M130 155 c-8 -9 -8 -15 -2 -15 12 0 26 19 19 26 -2 2 -10 -2 -17 -11z"/>
<path d="M250 140 c-12 -8 -9 -10 13 -10 16 0 26 4 22 10 -8 12 -16 12 -35 0z"/>
<path d="M200 70 c-12 -8 -9 -10 13 -10 16 0 26 4 22 10 -8 12 -16 12 -35 0z"/>
</g>
</svg>
