<?xml version="1.0" standalone="no"?>
<!DOCTYPE svg PUBLIC "-//W3C//DTD SVG 20010904//EN"
 "http://www.w3.org/TR/2001/REC-SVG-20010904/DTD/svg10.dtd">
  <svg version="1.0" xmlns="http://www.w3.org/2000/svg"
 width="65" height="65t" viewBox="0 0 512.000000 512.000000"
 preserveAspectRatio="xMidYMid meet">

<g transform="translate(0.000000,512.000000) scale(0.100000,-0.100000)"
fill="rgb(239 68 68)" stroke="none">
<path d="M563 5110 c-42 -17 -531 -349 -547 -372 -14 -20 -16 -134 -16 -1150
0 -805 3 -1134 11 -1151 6 -14 22 -30 36 -36 17 -8 278 -11 896 -11 762 0 875
2 894 15 12 8 95 143 184 300 l163 285 376 0 376 0 163 -285 c89 -157 172
-292 184 -300 19 -13 132 -15 894 -15 618 0 879 3 896 11 14 6 30 22 36 36 8
17 11 347 11 1152 0 1099 -1 1129 -19 1153 -11 13 -138 103 -282 199 l-263
174 -799 3 -798 2 -30 -29 -29 -29 0 -951 0 -951 -340 0 -340 0 0 951 0 951
-29 29 -29 29 -789 -1 c-433 0 -798 -4 -810 -9z m1277 -245 l-85 -85 -689 2
-689 3 124 82 124 83 650 0 650 0 -85 -85z m2779 3 l124 -83 -689 -3 -689 -2
-85 85 -85 85 650 0 649 0 125 -82z m-2569 -909 l0 -861 -82 -145 -83 -145 -3
928 -2 928 77 78 c43 43 81 78 85 78 5 0 8 -388 8 -861z m1113 783 l77 -78 -2
-928 -3 -928 -82 145 -83 145 0 861 c0 473 3 861 8 861 4 0 42 -35 85 -78z
m-1453 -1157 l0 -1025 -260 0 -260 0 0 236 c0 268 -4 287 -73 332 -37 24 -51
27 -151 30 -133 5 -188 -8 -232 -52 -47 -47 -54 -87 -54 -328 l0 -218 -255 0
-255 0 0 1025 0 1025 770 0 770 0 0 -1025z m3240 0 l0 -1025 -255 0 -255 0 0
218 c0 241 -7 281 -54 328 -44 44 -99 57 -232 52 -100 -3 -114 -6 -151 -30
-69 -45 -73 -64 -73 -332 l0 -236 -260 0 -260 0 0 1025 0 1025 770 0 770 0 0
-1025z m-3930 -810 l0 -215 -85 0 -85 0 0 208 c0 115 3 212 7 215 3 4 42 7 85
7 l78 0 0 -215z m3248 -2 l2 -213 -85 0 -85 0 0 215 0 216 83 -3 82 -3 3 -212z"/>
<path d="M457 4426 c-91 -34 -117 -88 -117 -246 0 -133 16 -182 71 -221 32
-22 45 -24 179 -27 138 -3 147 -2 180 20 19 13 45 39 57 57 21 31 23 45 23
169 0 153 -11 187 -77 232 -33 23 -47 25 -157 28 -85 1 -132 -2 -159 -12z
m223 -241 l0 -85 -85 0 -85 0 0 85 0 85 85 0 85 0 0 -85z"/>
<path d="M1137 4426 c-83 -31 -109 -77 -115 -208 -8 -158 14 -221 89 -267 30
-18 50 -21 169 -21 119 0 139 3 169 21 75 46 97 109 89 267 -6 114 -24 155
-86 194 -32 20 -52 23 -157 26 -84 1 -131 -2 -158 -12z m231 -243 l3 -83 -91
0 -90 0 0 78 c0 43 3 82 7 86 4 4 43 5 88 4 l80 -3 3 -82z"/>
<path d="M450 3743 c-37 -14 -74 -49 -91 -87 -27 -59 -27 -253 0 -312 38 -84
101 -108 267 -102 98 3 115 6 147 28 66 45 77 79 77 232 0 124 -2 138 -23 169
-12 18 -38 44 -56 56 -31 21 -44 23 -170 22 -75 0 -143 -3 -151 -6z m230 -248
l0 -85 -85 0 -85 0 0 85 0 85 85 0 85 0 0 -85z"/>
<path d="M1111 3729 c-76 -46 -97 -109 -89 -268 4 -87 8 -106 31 -140 44 -67
72 -76 227 -76 123 0 138 2 172 23 62 39 80 80 86 194 8 158 -14 221 -89 267
-30 18 -50 21 -169 21 -119 0 -139 -3 -169 -21z m257 -231 l-3 -83 -85 0 -85
0 -3 83 -3 82 91 0 91 0 -3 -82z"/>
<path d="M3697 4426 c-83 -31 -109 -77 -115 -208 -8 -158 14 -221 89 -267 30
-18 50 -21 169 -21 119 0 139 3 169 21 75 46 97 109 89 267 -6 114 -24 155
-86 194 -32 20 -52 23 -157 26 -84 1 -131 -2 -158 -12z m231 -243 l3 -83 -91
0 -90 0 0 78 c0 43 3 82 7 86 4 4 43 5 88 4 l80 -3 3 -82z"/>
<path d="M4389 4430 c-43 -13 -74 -38 -97 -79 -20 -34 -22 -53 -22 -173 0
-124 2 -138 23 -169 12 -18 38 -44 57 -57 33 -22 42 -23 180 -20 134 3 147 5
179 27 55 39 71 88 71 221 0 159 -26 213 -117 246 -41 14 -230 18 -274 4z
m221 -245 l0 -85 -85 0 -85 0 0 85 0 85 85 0 85 0 0 -85z"/>
<path d="M3671 3729 c-76 -46 -97 -109 -89 -268 4 -87 8 -106 31 -140 44 -67
72 -76 227 -76 123 0 138 2 172 23 62 39 80 80 86 194 8 158 -14 221 -89 267
-30 18 -50 21 -169 21 -119 0 -139 -3 -169 -21z m257 -231 l-3 -83 -85 0 -85
0 -3 83 -3 82 91 0 91 0 -3 -82z"/>
<path d="M4350 3728 c-19 -13 -45 -39 -57 -57 -21 -31 -23 -45 -23 -169 0
-153 11 -187 77 -232 32 -22 49 -25 147 -28 232 -8 286 41 286 258 0 133 -16
182 -71 221 -32 22 -45 24 -179 27 -138 3 -147 2 -180 -20z m260 -233 l0 -85
-85 0 -85 0 0 85 0 85 85 0 85 0 0 -85z"/>
<path d="M2523 2805 c-42 -18 -57 -71 -51 -187 4 -75 8 -91 28 -113 30 -32 90
-35 118 -4 24 25 32 62 32 148 0 99 -14 140 -55 157 -40 16 -32 17 -72 -1z"/>
<path d="M2499 2274 c-23 -25 -24 -30 -24 -186 l0 -160 28 -24 c36 -31 78 -31
114 0 l28 24 0 160 c0 156 -1 161 -24 186 -18 19 -35 26 -61 26 -26 0 -43 -7
-61 -26z"/>
<path d="M112 2107 c-13 -14 -22 -36 -22 -54 0 -81 27 -93 214 -93 141 0 145
1 175 26 40 33 43 83 6 119 -24 25 -27 25 -188 25 -158 0 -164 -1 -185 -23z"/>
<path d="M712 2110 c-44 -41 -35 -110 18 -137 34 -17 296 -17 330 0 54 27 63
94 20 137 -18 18 -34 20 -183 20 -150 0 -165 -2 -185 -20z"/>
<path d="M1305 2105 c-32 -31 -32 -75 -1 -112 24 -28 24 -28 171 -31 164 -4
197 4 221 50 17 33 11 62 -19 96 -20 21 -27 22 -184 22 -161 0 -164 0 -188
-25z"/>
<path d="M3443 2108 c-30 -34 -36 -63 -19 -96 24 -46 57 -54 221 -50 147 3
147 3 171 31 31 37 31 81 -1 112 -24 25 -27 25 -188 25 -157 0 -164 -1 -184
-22z"/>
<path d="M4040 2110 c-43 -43 -34 -110 20 -137 34 -17 296 -17 330 0 53 27 62
96 18 137 -20 18 -35 20 -185 20 -149 0 -165 -2 -183 -20z"/>
<path d="M4635 2105 c-37 -36 -34 -86 6 -119 30 -25 34 -26 175 -26 187 0 214
12 214 94 0 21 -8 40 -23 54 -22 21 -33 22 -186 22 -159 0 -162 -1 -186 -25z"/>
<path d="M54 1700 c-55 -22 -70 -95 -29 -135 l24 -25 551 0 c304 0 550 -4 550
-9 0 -4 -166 -299 -369 -655 -203 -355 -372 -659 -376 -675 -14 -66 32 -153
99 -185 31 -15 213 -16 2056 -16 1843 0 2025 1 2056 16 68 32 111 115 98 184
-4 18 -173 323 -375 677 -203 355 -369 650 -369 654 0 5 246 9 550 9 l551 0
24 25 c32 31 32 75 1 112 l-24 28 -647 0 -647 0 -24 -28 c-13 -15 -24 -40 -24
-54 0 -16 156 -298 405 -733 223 -389 405 -710 405 -714 0 -3 -891 -6 -1980
-6 -1089 0 -1980 3 -1980 6 0 4 182 325 405 714 249 435 405 717 405 733 0 14
-11 39 -24 54 l-24 28 -634 2 c-348 1 -643 -2 -654 -7z"/>
<path d="M2518 1694 c-42 -22 -50 -72 -46 -270 3 -167 4 -173 27 -198 31 -33
91 -36 119 -5 28 29 32 61 32 233 0 177 -9 220 -50 241 -36 18 -47 18 -82 -1z"/>
<path d="M50 1352 c-60 -29 -67 -104 -13 -139 23 -15 60 -19 255 -23 l229 -5
-261 -409 c-184 -291 -260 -418 -260 -438 0 -64 89 -103 138 -60 26 22 620
956 628 987 8 34 -20 81 -57 94 -21 7 -137 11 -328 11 -262 0 -300 -2 -331
-18z"/>
<path d="M4402 1355 c-35 -15 -56 -56 -48 -91 8 -30 602 -965 628 -987 49 -42
138 -3 138 61 0 20 -76 147 -260 438 l-261 409 229 5 c195 4 232 8 255 23 54
35 47 110 -13 139 -31 16 -69 18 -335 18 -236 -1 -307 -4 -333 -15z"/>
<path d="M2522 930 c-44 -18 -52 -62 -52 -290 0 -161 3 -219 15 -245 28 -68
115 -70 147 -5 15 30 18 65 18 248 0 234 -7 274 -55 292 -31 12 -42 12 -73 0z"/>
</g>
</svg>
